<?xml version="1.0" encoding="utf-8"?>
<!-- Generator: Adobe Illustrator 16.0.0, SVG Export Plug-In . SVG Version: 6.00 Build 0)  -->
<!DOCTYPE svg PUBLIC "-//W3C//DTD SVG 1.1//EN" "http://www.w3.org/Graphics/SVG/1.1/DTD/svg11.dtd">
<svg version="1.1" id="Layer_1" xmlns="http://www.w3.org/2000/svg" xmlns:xlink="http://www.w3.org/1999/xlink" x="0px" y="0px"
	 width="50px" height="50px" viewBox="0 0 50 50" enable-background="new 0 0 50 50" xml:space="preserve">
<g>
	<path fill="#FFFFFF" d="M10.702,34.628v0.19C10.829,34.777,10.829,34.713,10.702,34.628z"/>
	<path fill="#FFFFFF" d="M9.752,43.182c0-0.337,0-0.686,0-1.046c0-0.357,0.041-0.706,0.127-1.045v-0.127
		c-0.043-0.084-0.043-0.19,0-0.316c0.042-0.127,0.042-0.231,0-0.316c0-0.085-0.032-0.148-0.095-0.19
		c-0.064-0.042-0.074-0.104-0.032-0.19l0.19-0.38c0.084-0.211,0.084-0.422,0-0.634c-0.127-0.211-0.149-0.422-0.063-0.634
		c0.042-0.042,0.063-0.084,0.063-0.126s0.021-0.084,0.063-0.127l0.19-0.824c0-0.21,0.041-0.484,0.126-0.823v-0.063
		c-0.042-0.042-0.063-0.104-0.063-0.189l0.19-0.571c0.084-0.167,0.104-0.337,0.063-0.506c-0.086-0.212-0.021-0.359,0.189-0.444
		c0-0.295,0.041-0.507,0.127-0.633c0.085-0.084,0.169-0.211,0.254-0.38c0.084-0.338,0.179-0.676,0.285-1.015
		c0.104-0.337,0.157-0.696,0.157-1.076c0-0.085,0.042-0.254,0.128-0.508c0.041-0.126,0.083-0.254,0.126-0.38
		c0.042-0.126,0.063-0.254,0.063-0.38c0.084-0.337,0.168-0.634,0.253-0.888c0.043-0.041,0.063-0.126,0.063-0.254
		c0-0.21,0.021-0.4,0.064-0.569c0.041-0.168,0.083-0.358,0.126-0.569c0.085-0.254,0.169-0.592,0.253-1.015
		c0.084-0.211,0.137-0.422,0.159-0.633c0.021-0.211,0.073-0.423,0.158-0.634c0.084-0.338,0.168-0.687,0.254-1.046
		c0.084-0.358,0.168-0.729,0.253-1.109c0.041-0.041,0.064-0.084,0.064-0.126c0.083-0.211,0.157-0.433,0.221-0.666
		c0.062-0.231,0.137-0.452,0.222-0.665l0.063-0.063c0-0.041,0.074-0.221,0.222-0.538c0.147-0.316,0.222-0.518,0.222-0.602
		c0.085-0.211,0.2-0.518,0.349-0.919c0.147-0.4,0.222-0.644,0.222-0.729v-0.063c0-0.041,0.01-0.063,0.032-0.063
		c0.021,0,0.03-0.021,0.03-0.062c0.043,0,0.064-0.021,0.064-0.064v-0.063l0.189-0.443v-0.126c0-0.042,0.021-0.084,0.063-0.127
		l0.063-0.063c0.085-0.211,0.18-0.422,0.286-0.634c0.104-0.211,0.198-0.443,0.284-0.697c0-0.126,0.063-0.253,0.19-0.38l0.57-1.203
		c0.127-0.295,0.264-0.57,0.411-0.824s0.307-0.527,0.476-0.823l0.19-0.38c0-0.085,0.02-0.148,0.062-0.19
		c0.211-0.295,0.358-0.591,0.444-0.887c0.085-0.295,0.211-0.612,0.38-0.951c0.168-0.295,0.327-0.58,0.476-0.854
		c0.146-0.274,0.306-0.581,0.475-0.919l0.126-0.127c0.042-0.211,0.127-0.4,0.254-0.57c0.128-0.168,0.231-0.338,0.318-0.507
		l0.188-0.253c0.085-0.212,0.19-0.401,0.316-0.57c0.128-0.169,0.254-0.338,0.381-0.508c0.295-0.337,0.57-0.738,0.824-1.203
		c0.084-0.084,0.21-0.254,0.38-0.507c0.254-0.381,0.464-0.687,0.634-0.919c0.168-0.231,0.338-0.464,0.507-0.697
		c0.168-0.231,0.316-0.411,0.442-0.538c0.042-0.085,0.106-0.169,0.19-0.254c0-0.084,0.021-0.147,0.064-0.189
		c0.21-0.169,0.379-0.327,0.506-0.476c0.128-0.147,0.274-0.306,0.444-0.476c0.168-0.167,0.337-0.316,0.506-0.443
		c0.169-0.126,0.358-0.253,0.571-0.38c0.326-0.199,0.662-0.381,1.003-0.556C26.58,0.166,25.795,0.125,25,0.125
		C11.262,0.125,0.125,11.262,0.125,25c0,7.99,3.771,15.095,9.627,19.646V43.182z"/>
	<path fill="#FFFFFF" d="M27.937,17.712c0.084-0.084,0.146-0.105,0.189-0.064h0.127c0.042,0,0.062-0.02,0.062-0.062
		c0.127-0.127,0.264-0.254,0.412-0.38c0.148-0.127,0.264-0.254,0.349-0.381c0.085-0.083,0.159-0.168,0.222-0.253
		c0.063-0.084,0.137-0.168,0.223-0.253c0.802-0.676,1.498-1.437,2.09-2.281l0.634-0.761c0.254-0.253,0.476-0.507,0.665-0.76
		c0.189-0.254,0.391-0.528,0.603-0.824c0.083-0.168,0.167-0.337,0.254-0.507c0.084-0.168,0.21-0.295,0.379-0.38l0.064-0.063
		c0.041-0.127,0.104-0.242,0.189-0.348c0.085-0.105,0.168-0.2,0.253-0.286l0.38-0.634c0.128-0.21,0.243-0.442,0.35-0.696
		c0.104-0.254,0.222-0.485,0.348-0.697c0.549-1.014,0.972-2.006,1.268-2.978l0.38-1.584c0.014-0.025,0.019-0.052,0.03-0.076
		c-0.361-0.208-0.728-0.408-1.1-0.598c-0.045,0.034-0.094,0.068-0.135,0.104c-0.253,0.212-0.485,0.434-0.696,0.665
		c-0.212,0.232-0.423,0.497-0.634,0.792l-1.076,1.457c-0.297,0.423-0.529,0.846-0.697,1.268c-0.085,0.169-0.17,0.296-0.254,0.38
		c-0.169,0.212-0.316,0.444-0.444,0.697c-0.126,0.253-0.274,0.507-0.443,0.761c-0.168,0.169-0.275,0.338-0.316,0.506
		c-0.169,0.339-0.338,0.645-0.507,0.92s-0.339,0.581-0.506,0.918c-0.171,0.254-0.233,0.465-0.19,0.634
		c0,0.085-0.022,0.181-0.064,0.285c-0.042,0.106-0.085,0.201-0.126,0.285l-0.443,1.014c-0.042,0.254-0.116,0.475-0.222,0.665
		c-0.106,0.19-0.244,0.391-0.412,0.603c-0.127,0.084-0.232,0.253-0.317,0.506c-0.042,0.212-0.168,0.423-0.38,0.634l-0.253,0.381
		c-0.339,0.592-0.507,1.225-0.507,1.9c0.041-0.085,0.083-0.169,0.126-0.254C27.851,17.881,27.894,17.797,27.937,17.712z"/>
	<path fill="#FFFFFF" d="M31.484,27.532c0.126-0.254,0.252-0.507,0.381-0.761c0.253-0.548,0.357-1.056,0.316-1.52
		c0-0.169-0.063-0.359-0.19-0.57c-0.085-0.085-0.149-0.169-0.19-0.254c-0.126-0.127-0.244-0.211-0.349-0.253
		c-0.106-0.042-0.285,0-0.538,0.126c-0.085,0.043-0.212,0.148-0.381,0.317c-0.085,0.043-0.169,0.095-0.253,0.158
		c-0.085,0.062-0.17,0.116-0.254,0.158c-0.253,0.169-0.422,0.296-0.506,0.38c-0.17,0.212-0.339,0.401-0.508,0.57
		c-0.168,0.169-0.316,0.359-0.442,0.57c-0.213,0.212-0.403,0.423-0.571,0.633c-0.169,0.213-0.316,0.444-0.443,0.698l-0.253,0.38
		l-0.444,0.569l-0.57,0.824c-0.085,0.127-0.157,0.275-0.222,0.443c-0.063,0.17-0.137,0.297-0.221,0.38
		c-0.086,0.17-0.17,0.317-0.254,0.444c-0.086,0.126-0.17,0.253-0.254,0.38c-0.085,0.212-0.189,0.412-0.316,0.602
		c-0.127,0.19-0.233,0.392-0.317,0.602c-0.085,0.296-0.2,0.581-0.348,0.856c-0.149,0.274-0.264,0.538-0.349,0.792
		c0.211-0.042,0.527-0.147,0.951-0.317c0.379-0.211,0.76-0.401,1.139-0.57c0.381-0.169,0.781-0.316,1.205-0.443
		c0.168-0.042,0.316-0.127,0.443-0.253c0.084-0.085,0.168-0.159,0.253-0.222c0.084-0.064,0.19-0.116,0.316-0.158
		c0.127-0.127,0.19-0.212,0.19-0.254c0.127-0.296,0.339-0.507,0.634-0.634c0.337-0.295,0.644-0.623,0.919-0.982
		c0.274-0.358,0.539-0.706,0.792-1.045l0.127-0.127v-0.317c-0.085-0.167-0.063-0.316,0.063-0.442
		C31.209,28.039,31.357,27.786,31.484,27.532z"/>
	<path fill="#FFFFFF" d="M39.785,4.997c-0.043,0.154-0.086,0.315-0.128,0.486l-0.57,1.584l-0.57,1.204
		c-0.085,0.212-0.17,0.401-0.253,0.57c-0.085,0.169-0.169,0.359-0.253,0.57c-0.044,0.127-0.096,0.253-0.159,0.379
		c-0.063,0.128-0.138,0.233-0.222,0.317c-0.212,0.212-0.381,0.434-0.507,0.666c-0.127,0.232-0.275,0.475-0.443,0.729
		c0,0.085-0.043,0.169-0.127,0.253c-0.126,0.212-0.244,0.402-0.349,0.57c-0.105,0.169-0.201,0.359-0.285,0.57
		c-0.085,0.127-0.168,0.254-0.254,0.38c-0.085,0.127-0.211,0.233-0.38,0.317c-0.085,0.042-0.138,0.095-0.158,0.158
		c-0.021,0.063-0.074,0.138-0.158,0.222c-0.127,0.169-0.244,0.339-0.348,0.507c-0.106,0.169-0.266,0.317-0.477,0.443
		c-0.126,0.212-0.295,0.423-0.507,0.634c-0.211,0.212-0.38,0.423-0.506,0.633c-0.17,0.254-0.381,0.466-0.634,0.634
		c-0.213,0.127-0.38,0.339-0.507,0.634c-0.042,0.127-0.117,0.244-0.222,0.349c-0.106,0.106-0.201,0.201-0.285,0.285
		c-0.127,0.085-0.244,0.201-0.349,0.348c-0.106,0.149-0.222,0.286-0.349,0.413c-0.043,0.085-0.17,0.232-0.38,0.442
		c-0.253,0.128-0.466,0.276-0.634,0.444c-0.253,0.253-0.466,0.401-0.634,0.443c-0.085,0.042-0.169,0.106-0.253,0.19
		c-0.127,0.127-0.244,0.264-0.35,0.411c-0.105,0.149-0.222,0.286-0.348,0.412c-0.169,0.17-0.296,0.275-0.381,0.316
		c-0.126,0.085-0.231,0.233-0.316,0.444c0,0.211-0.021,0.359-0.063,0.443c-0.084,0.127-0.137,0.264-0.159,0.411
		c-0.021,0.149-0.073,0.285-0.157,0.412l-0.571,1.141l-0.253,0.38c-0.085,0.127-0.168,0.254-0.252,0.38
		c-0.086,0.128-0.128,0.275-0.128,0.444l-0.062,0.253c-0.17,0.17-0.276,0.349-0.317,0.538c-0.043,0.19-0.085,0.392-0.126,0.603
		c0.126-0.084,0.21-0.158,0.253-0.222c0.041-0.063,0.104-0.136,0.19-0.222l1.267-1.521c0.295-0.337,0.603-0.634,0.919-0.888
		c0.316-0.253,0.643-0.506,0.981-0.76c0.211-0.127,0.401-0.254,0.57-0.38c0.168-0.127,0.339-0.253,0.507-0.381
		c0.253-0.21,0.496-0.4,0.729-0.57c0.231-0.168,0.475-0.316,0.729-0.443c0.168-0.084,0.317-0.127,0.443-0.127l0.443-0.189
		c0.295-0.127,0.549-0.168,0.76-0.127h0.443c0.128,0.043,0.255,0.054,0.381,0.032s0.253,0.011,0.38,0.095
		c0.085,0.043,0.19,0.074,0.316,0.095c0.127,0.022,0.231,0.074,0.316,0.158c0.254,0.127,0.465,0.275,0.634,0.444l0.951,0.887
		c0.168,0.17,0.273,0.316,0.316,0.443c0.338,0.804,0.591,1.584,0.762,2.345c0.083,0.253,0.126,0.518,0.126,0.792s0,0.538,0,0.792
		c0,0.085-0.022,0.158-0.064,0.222s-0.062,0.138-0.062,0.221c-0.129,0.297-0.171,0.551-0.129,0.761c0,0.043-0.01,0.074-0.031,0.096
		c-0.021,0.021-0.03,0.054-0.03,0.095c-0.043,0.085-0.086,0.158-0.128,0.222c-0.043,0.063-0.086,0.138-0.127,0.222
		c-0.253,0.719-0.676,1.373-1.267,1.964c-0.338,0.423-0.592,0.824-0.761,1.204c-0.085,0.085-0.138,0.158-0.157,0.222
		c-0.023,0.063-0.075,0.117-0.159,0.158c-0.126,0.17-0.243,0.328-0.349,0.476c-0.106,0.148-0.264,0.264-0.475,0.349l-0.127,0.19
		c-0.253,0.338-0.486,0.612-0.697,0.823l-0.254,0.38c-0.084,0.126-0.296,0.296-0.634,0.507c-0.338,0.212-0.695,0.423-1.076,0.634
		c-0.38,0.212-0.739,0.402-1.077,0.57c-0.338,0.169-0.55,0.274-0.634,0.316c-0.253,0.17-0.518,0.317-0.791,0.443
		c-0.275,0.127-0.561,0.254-0.855,0.381c-0.213,0.085-0.402,0.169-0.571,0.253c-0.169,0.085-0.358,0.17-0.57,0.254
		c-0.042,0-0.073,0.011-0.094,0.031c-0.023,0.022-0.055,0.031-0.096,0.031c-0.085,0.043-0.127,0.128-0.127,0.254
		c0.127,0.127,0.243,0.265,0.349,0.412c0.105,0.148,0.222,0.307,0.348,0.475c0.085,0.085,0.105,0.19,0.064,0.317
		c-0.043,0.169-0.021,0.296,0.063,0.38l0.316,0.38c0.127,0.085,0.189,0.212,0.189,0.38c0,0.213,0.128,0.444,0.381,0.697
		c0.21,0.212,0.338,0.402,0.381,0.57c0.084,0.126,0.137,0.265,0.157,0.412c0.021,0.148,0.073,0.285,0.159,0.412
		c0.126,0.296,0.23,0.569,0.316,0.823l0.189,0.443c0,0.085,0.084,0.127,0.254,0.127c0.127,0,0.232,0.042,0.317,0.127
		c0.084,0.169,0.168,0.316,0.253,0.443c0.084,0.127,0.168,0.253,0.253,0.381c0.085,0.168,0.169,0.316,0.254,0.442
		c0.084,0.128,0.19,0.254,0.317,0.38c0.126,0.127,0.221,0.265,0.285,0.412c0.062,0.148,0.137,0.308,0.222,0.476
		c0.084,0.169,0.168,0.275,0.253,0.317c0.253,0.212,0.422,0.528,0.507,0.949c0,0.086,0.01,0.17,0.032,0.254
		c0.021,0.085,0.03,0.17,0.03,0.253c0,0.003,0.001,0.005,0.001,0.008C42.511,45.622,49.875,36.171,49.875,25
		C49.875,16.8,45.905,9.528,39.785,4.997z"/>
	<path fill="#FFFFFF" d="M28.253,49.011c-0.127-0.295-0.316-0.527-0.57-0.697c-0.085-0.041-0.17-0.168-0.254-0.38
		c0-0.126-0.021-0.231-0.063-0.316c-0.042-0.084-0.105-0.169-0.19-0.254c-0.211-0.127-0.316-0.316-0.316-0.57
		c0-0.127-0.042-0.231-0.127-0.316c-0.169-0.295-0.316-0.591-0.443-0.887c-0.126-0.296-0.252-0.592-0.38-0.888
		c-0.086-0.253-0.169-0.443-0.253-0.57c-0.127-0.126-0.19-0.253-0.19-0.38c-0.043-0.169-0.127-0.337-0.253-0.507
		c-0.127-0.127-0.19-0.295-0.19-0.507c0-0.295-0.127-0.612-0.38-0.95c-0.17-0.295-0.328-0.58-0.476-0.855
		c-0.148-0.274-0.328-0.56-0.538-0.855l-0.444-0.57c0-0.042-0.042-0.062-0.126-0.062l-0.064,0.062
		c-0.211,0.634-0.338,1.289-0.38,1.965c0,0.168,0.021,0.296,0.063,0.379c0.042,0.17,0.064,0.38,0.064,0.634
		c-0.128,0.634-0.149,1.353-0.064,2.154v0.57c-0.085,0.127-0.126,0.36-0.126,0.697v0.95c0,0.17-0.043,0.296-0.127,0.38
		c-0.17,0.339-0.339,0.719-0.507,1.141c0,0.085-0.011,0.138-0.031,0.158c-0.022,0.021-0.032,0.054-0.032,0.096l-0.57,0.634
		l-0.286,0.286c1.304,0.21,2.64,0.324,4.003,0.324c1.229,0,2.434-0.093,3.613-0.265L28.253,49.011z"/>
</g>
</svg>
